<svg id="Layer_1" data-name="Layer 1" xmlns="http://www.w3.org/2000/svg" viewBox="0 0 112.33 114.01"><defs><style>.cls-1,.cls-3{fill:none;stroke-width:3px;stroke:#e6a454;stroke-miterlimit:10}.cls-3{fill:#e6a454;stroke-width:.5px}</style></defs><path class="cls-1" d="M14.56 66.31q-.17-29.43.11-58.38a6.56 6.56 0 011.88-4.55A6.43 6.43 0 0121.1 1.5H91a6.43 6.43 0 016.43 6.43v57.93M89.56 88.05h-66"/><path d="M14.67 49.6L3.4 61.57a7 7 0 00-1.9 4.79v44.54a1.61 1.61 0 001.61 1.61h34a2.05 2.05 0 002.05-2.05V88.05" stroke-linecap="round" stroke-linejoin="round" stroke="#e6a454" fill="none" stroke-width="3"/><path class="cls-1" d="M1.5 76.76L26 56.06s7.53-7.52 13.17-1.88c0 0 4.7 6.59 0 11.29l-16.93 15s5.64 22.58-11.29 22.58M97.66 49.6l11 11.66a8 8 0 012.19 5.53v42.52a3.19 3.19 0 01-3.19 3.2H75.42a2.21 2.21 0 01-2.21-2.22V88.05"/><path class="cls-1" d="M110.83 76.76l-24.45-20.7s-7.53-7.52-13.17-1.88c0 0-4.71 6.59 0 11.29l16.93 15s-5.65 22.58 11.29 22.58"/><path class="cls-3" d="M76.3 32.12A20.59 20.59 0 0064 18.15a8 8 0 00-15.3 0 20.64 20.64 0 00-12.28 14 5.14 5.14 0 000 10.25 20.57 20.57 0 0039.84 0 5.14 5.14 0 000-10.25zm-42.55 5.13a3.1 3.1 0 012.27-3c-.08.61-.15 1.23-.18 1.86V36.58a2.18 2.18 0 010 .25v1.33a.76.76 0 010 .15v.87a1.64 1.64 0 000 .22v.78a3.08 3.08 0 01-2.09-2.93zm22.63-22.63a6 6 0 015 2.69h-.12a5.85 5.85 0 00-4.7 9.27h-.17a6 6 0 010-12zm18.5 23.12v.97a.19.19 0 010 .08v1.8a2.21 2.21 0 000 .25 1.42 1.42 0 000 .2 18.52 18.52 0 01-36.25 0v-.23a2.07 2.07 0 010-.22l-.06-.31a.77.77 0 000-.15l-.57-.41a.15.15 0 000-.07c0-.16 0-.31-.05-.47a17.82 17.82 0 01-.1-1.93v-.44-.14a2.71 2.71 0 010-.29.91.91 0 010-.17v-.26-.45a18.61 18.61 0 0110.5-14.93 8.3 8.3 0 00.29 2.13 16.33 16.33 0 00-4.82 3.9 1 1 0 00.78 1.69 1 1 0 00.79-.36 14.4 14.4 0 014-3.33 8.05 8.05 0 007 4 8.18 8.18 0 002.61-.41 1 1 0 00.22-1.84 3.79 3.79 0 011.93-7 18.5 18.5 0 0113.35 14.1l.06.34a1.36 1.36 0 000 .17v.75a.59.59 0 010 .13c0 .3.07.6.1.91a.38.38 0 000 .1v.35a.57.57 0 000 .13v.92c0 .15.23.32.22.49zm1.85 2.48v-.48a2.91 2.91 0 000-.31v-.2a2.45 2.45 0 000-.27v-.76V37.72v-.47V36.69v-.25-.18-.22-.2-.2-.21a1.23 1.23 0 010-.19 1.49 1.49 0 010-.21v-.48-.28a3.08 3.08 0 010 5.95z"/><path class="cls-3" d="M52.72 38.44a4.12 4.12 0 00-7.95 0 1 1 0 002 .53 2.06 2.06 0 014 0 1 1 0 001 .76h.26a1 1 0 00.69-1.29zM64 35.39a4.11 4.11 0 00-4 3 1 1 0 102 .61 2.06 2.06 0 014 0 1 1 0 001 .76h.27a1 1 0 00.73-1.32 4.11 4.11 0 00-4-3.05zM59.62 45.65a1 1 0 00-1.25.73 2.06 2.06 0 01-4 0 1 1 0 10-2 .53 4.11 4.11 0 007.94 0 1 1 0 00-.69-1.26z"/></svg>