<svg width="18" height="21" fill="none" xmlns="http://www.w3.org/2000/svg"><path d="M14.578 3.763l-2.434 2.434c-.885 1.24-2.434 1.401-3.098 1.328-1.24 0-2.287-.59-2.656-.886L3.956 4.205C2.85 3.1 2.186 2.656 1.3 3.541c-.708.708 0 1.623.443 1.992.074.147.62.797 2.213 2.213s1.697 3.54 1.55 4.426v6.86c.073.369.442 1.107 1.327 1.107s1.106-.738 1.106-1.107v-3.098c0-.664.222-1.55 1.107-1.55.708 0 .885.886.885 1.329v3.32c.074.368.443 1.106 1.328 1.106s1.106-.886 1.106-1.328v-6.418c0-2.301.886-3.762 1.328-4.205l2.656-2.655c1.062-1.062.59-1.918.221-2.213-.708-.708-1.623 0-1.992.443z" stroke="#fff" stroke-width=".6"/><circle cx="9.046" cy="3.319" r="3.019" stroke="#fff" stroke-width=".6"/></svg>