<svg width="20" height="18" fill="none" xmlns="http://www.w3.org/2000/svg"><path d="M7.486 11.63l3.263.988a.395.395 0 01-.021.067c-.087.237-.266.37-.557.415-1.072.17-2.851.063-2.868.063a.498.498 0 00-.062.993c.079.004 1.903.117 3.088-.075 1.176-.187 1.513-1.222 1.45-1.874a.5.5 0 00-.353-.432l-3.653-1.106c-1.804-.544-3.782.461-3.865.503-.009.004-.021.008-.03.017L.242 13.387a.5.5 0 00.515.856l3.62-2.182c.158-.083 1.75-.843 3.11-.432z" fill="#fff"/><path d="M19.939 10.794c-.287-.524-1.18-1.359-2.536-.76-1.28.569-3.985 1.87-4.015 1.882a.497.497 0 10.432.898c.03-.012 2.719-1.31 3.986-1.87.362-.162.665-.162.927 0l.021.012-6.779 4.967a2.265 2.265 0 01-1.679.407l-6.047-.964a.513.513 0 00-.4.108L2.32 16.75a.496.496 0 00-.062.702.498.498 0 00.702.062l1.355-1.13 5.827.931a3.263 3.263 0 002.428-.586l7.232-5.295a.502.502 0 00.137-.64zm-9.241-.574a2.907 2.907 0 10-2.057-4.963 2.907 2.907 0 002.057 4.963zm-1.35-4.256c.361-.362.84-.561 1.35-.561.512 0 .99.2 1.351.56a1.914 1.914 0 01-1.35 3.264 1.914 1.914 0 01-1.35-3.263zm4.763-1.425a2.27 2.27 0 000-4.539 2.27 2.27 0 000 4.539zm-.898-3.167c.241-.242.561-.374.902-.374.341 0 .661.133.902.374a1.277 1.277 0 010 1.8 1.267 1.267 0 01-.902.373c-.34 0-.66-.133-.902-.374a1.277 1.277 0 010-1.8z" fill="#fff"/></svg>