<svg width="19" height="19" fill="none" xmlns="http://www.w3.org/2000/svg"><path d="M18.746 12.513l-2.084-1.787h-2.259v-.643a.94.94 0 00.223.03h.07a.934.934 0 00.598-1.65l-5.056-4.212a1.1 1.1 0 00-.432-.215V2.758h3.678V0h-4.29v4.036c-.157.04-.306.11-.432.215L3.707 8.464a.934.934 0 00.597 1.649h.07c.076 0 .15-.012.223-.03v.643H2.338L.253 12.513a.727.727 0 00.473 1.277H.92V19h17.162v-5.21h.193a.727.727 0 00.472-1.277zM9.806.613h3.065v1.532H9.806V.613zm-5.21 17.774H1.533V13.79h2.452v-.613H.726a.114.114 0 01-.074-.2l1.913-1.638h2.032v7.048zm4.598 0h-.92v-2.145h.92v2.145zm1.532 0h-.92v-2.145h.92v2.145zm3.064 0h-2.45V15.63H7.66v2.758H5.21V9.703L9.5 6.217l4.29 3.487v8.683zM9.5 5.427L4.576 9.43a.32.32 0 01-.202.071h-.07a.32.32 0 01-.205-.565l5.055-4.213a.554.554 0 01.691 0l5.056 4.213a.32.32 0 01-.205.565h-.07a.32.32 0 01-.202-.071L9.5 5.428zm8.774 7.75h-3.258v.613h2.452v4.597h-3.065V11.34h2.032l1.912 1.639a.113.113 0 01-.073.2z" fill="#fff"/></svg>