<svg width="19" height="20" fill="none" xmlns="http://www.w3.org/2000/svg"><path d="M18.582 4.413L9.502.029a.293.293 0 00-.256 0L.166 4.413A.293.293 0 000 4.677v10.646c0 .113.064.215.166.264l9.08 4.384a.293.293 0 00.255 0l9.081-4.384a.293.293 0 00.166-.264V4.677a.293.293 0 00-.166-.264zM9.374.618l8.407 4.059-2.437 1.176a.289.289 0 00-.05-.031l-8.35-4.03L9.374.617zM6.283 2.122l8.394 4.053-1.719.83-8.391-4.05 1.716-.833zm8.59 4.609v3.068l-1.605.775V7.506l1.606-.775zm3.289 8.409l-8.495 4.1V9.245l2.026-.979a.293.293 0 10-.255-.527l-2.064.996-.813-.392a.293.293 0 10-.254.528l.774.374v9.995l-8.495-4.1V5.143l6.469 3.122a.292.292 0 00.39-.136.293.293 0 00-.136-.391L.967 4.677l2.91-1.405 8.8 4.248.005.006v3.515a.293.293 0 00.42.264l2.192-1.058a.293.293 0 00.166-.264V6.448l2.702-1.304v9.995z" fill="#fff"/></svg>