<svg width="24" height="24" viewBox="0 0 24 24" fill="none" xmlns="http://www.w3.org/2000/svg">
<path d="M19.305 11.6093C19.3264 11.6029 19.3441 11.5987 19.3585 11.5959C19.377 11.6505 19.403 11.764 19.403 11.9759C19.403 12.718 19.6 13.3828 20.2169 13.63C20.4918 13.7402 20.7696 13.7259 20.9937 13.6792C21.2199 13.632 21.4354 13.5427 21.6192 13.4506C21.9035 13.3082 22.0185 12.9621 21.8765 12.6777C21.7344 12.3931 21.3887 12.2775 21.1042 12.4199C20.9688 12.4877 20.8519 12.5316 20.7589 12.551C20.7022 12.5628 20.6694 12.5625 20.6539 12.5611C20.6483 12.5537 20.6395 12.5403 20.6294 12.518C20.5967 12.446 20.554 12.29 20.554 11.9759C20.554 11.5067 20.4655 11.035 20.1418 10.7253C19.7789 10.3781 19.3149 10.404 18.9769 10.5046C18.6369 10.6059 18.2914 10.8143 17.9758 11.0483C17.6525 11.2879 17.325 11.5813 17.0186 11.8882C16.755 12.1522 16.4789 12.3684 16.231 12.518C16.1748 12.5519 16.122 12.5812 16.0729 12.6063C16.0156 12.6355 15.9857 12.6191 15.9757 12.6103C15.9651 12.6009 15.9444 12.5711 15.9653 12.5087C15.9858 12.4477 16.0113 12.3789 16.043 12.302C16.2352 11.8346 16.3249 11.3243 16.1404 10.8709C15.9395 10.3771 15.4913 10.1282 15.0021 10.0498C14.5622 9.97922 14.0341 10.0317 13.4442 10.1805C13.3815 8.59338 13.0333 6.83421 12.0278 5.54732C10.9534 4.17231 9.43459 3.63286 8.12361 3.92831C6.78442 4.23013 5.78617 5.37981 5.78617 7.07449C5.78617 9.57949 7.2397 11.3232 8.95011 12.5821C8.15309 13.3381 7.5432 14.2038 7.17003 15.049C7.14255 15.1113 7.11626 15.1736 7.09118 15.2361H2.42553C2.10744 15.2361 1.85 15.4943 1.85 15.8123C1.85 16.1303 2.10744 16.3886 2.42553 16.3886H6.7783C6.741 16.6718 6.73641 16.95 6.77043 17.2167C6.86007 17.9194 7.22239 18.5393 7.91274 18.8851C8.63625 19.2474 9.33928 19.2154 9.96036 18.9264C10.553 18.6505 11.044 18.1553 11.4369 17.6293C11.7272 17.2408 11.9817 16.8112 12.1984 16.3886H21.5745C21.8926 16.3886 22.15 16.1303 22.15 15.8123C22.15 15.4943 21.8926 15.2361 21.5745 15.2361H12.7143C12.8249 14.9514 12.9125 14.6956 12.9756 14.4899C13.1669 13.8673 13.3855 12.7047 13.4414 11.3767C13.4963 11.3602 13.5501 11.3448 13.6026 11.3304C14.1758 11.1733 14.5737 11.1482 14.8201 11.1877C14.9385 11.2067 15.0007 11.2359 15.0325 11.2579C15.0614 11.2778 15.0701 11.295 15.0745 11.3058L15.2134 11.2492L15.0745 11.3058C15.0932 11.3518 15.1215 11.5158 14.9786 11.8633C14.7845 12.3352 14.6695 12.8033 14.7757 13.1957C14.836 13.4186 14.9698 13.6204 15.1851 13.7495C15.3873 13.8708 15.6056 13.8944 15.7861 13.8831C16.1346 13.8612 16.5018 13.7001 16.8251 13.5051C17.1624 13.3016 17.5112 13.0249 17.8327 12.7029C18.1115 12.4237 18.3956 12.1711 18.6607 11.9745C18.9335 11.7723 19.153 11.6545 19.305 11.6093ZM11.8754 14.1511C11.7892 14.4318 11.6519 14.8165 11.4698 15.2361H8.356C8.70553 14.5552 9.2434 13.8537 9.93392 13.2427C10.1017 13.346 10.2699 13.4456 10.4377 13.5417C10.7138 13.6998 11.0655 13.6036 11.2231 13.3273C11.3807 13.0512 11.2851 12.6992 11.0091 12.5412C10.9836 12.5266 10.9581 12.5119 10.9326 12.4972C11.1192 12.381 11.3127 12.2721 11.5128 12.1719C11.7758 12.0402 12.0257 11.9228 12.2625 11.819C12.1849 12.8453 12.0132 13.7026 11.8754 14.1511ZM7.91222 17.0707C7.88709 16.8737 7.89595 16.6441 7.9435 16.3886H10.8826C10.7675 16.58 10.6448 16.7656 10.5152 16.939C10.1768 17.392 9.82336 17.7192 9.47514 17.8813C9.15549 18.0301 8.82129 18.0515 8.42769 17.8543C8.13135 17.7059 7.96092 17.4525 7.91222 17.0707ZM12.3027 10.5544C11.8984 10.7131 11.463 10.9083 10.9978 11.1412C10.5981 11.3414 10.2208 11.5713 9.86853 11.8236C8.1951 10.6554 6.93723 9.16168 6.93723 7.07449C6.93723 5.89238 7.58769 5.23039 8.37639 5.05264C9.19333 4.86853 10.2808 5.18183 11.1212 6.2574C11.9625 7.33418 12.2763 8.93795 12.3022 10.5205C12.3024 10.5318 12.3026 10.5431 12.3027 10.5544ZM5.27939 11.4246C5.50403 11.1996 5.50403 10.8349 5.27939 10.6099C5.05461 10.3847 4.69007 10.3847 4.46529 10.6099L3.70213 11.3743L2.93896 10.6099C2.71419 10.3847 2.34964 10.3847 2.12487 10.6099C1.90022 10.8349 1.90022 11.1996 2.12487 11.4246L2.88838 12.1894L2.12487 12.9541C1.90022 13.1791 1.90022 13.5439 2.12487 13.7689C2.34964 13.994 2.71419 13.994 2.93896 13.7689L3.70213 13.0045L4.46529 13.7689C4.69007 13.994 5.05461 13.994 5.27939 13.7689C5.50403 13.5439 5.50403 13.1791 5.27939 12.9541L4.51588 12.1894L5.27939 11.4246Z" fill="#EA9FBA" stroke="black" stroke-width="0.3" stroke-linecap="round"/>
</svg>
